<svg viewBox="0 0 256 256" xmlns="http://www.w3.org/2000/svg" xml:space="preserve" style="fill-rule:evenodd;clip-rule:evenodd;stroke-linejoin:round;stroke-miterlimit:2">
  <desc>Traced by Dogo314</desc>
  <g transform="translate(-276 -306)">
    <path style="fill:none" d="M276 306h256v256H276z"/>
    <clipPath id="a">
      <path d="M276 306h256v256H276z"/>
    </clipPath>
    <g clip-path="url(#a)">
      <path style="fill:#081901" transform="translate(0 306)" d="M276 0h256v256H276z"/>
      <path d="m941.569 2687.173-18.155-20.25V2642H929c0-14.902 12.098-27 27-27s27 12.098 27 27h5.586v24.923l-18.62 20.769 3.724 4.154 6.517-7.269 5.586 6.231-18.621 20.769-5.586-6.231 7.448-8.308-3.724-4.153-1.41 1.573c-4.363 4.866-11.437 4.866-15.8 0l-1.876-2.093-4.19 4.673 7.449 8.308-5.586 6.231-18.621-20.769 5.586-6.231 6.517 7.269zM976.483 2642h-40.966v19.731l7.449 6.231 13.034-9.347 13.034 9.347 7.449-6.231zM956 2663.808c-1.542 0-2.793 1.396-2.793 3.115s1.251 3.115 2.793 3.115 2.793-1.395 2.793-3.115c0-1.719-1.251-3.115-2.793-3.115m0 11.423c-1.542 0-2.793 1.396-2.793 3.115s1.251 3.116 2.793 3.116 2.793-1.396 2.793-3.116c0-1.719-1.251-3.115-2.793-3.115m8.379-5.193c-1.541 0-2.793 1.396-2.793 3.116 0 1.719 1.252 3.115 2.793 3.115s2.793-1.396 2.793-3.115-1.251-3.116-2.793-3.116m-16.758 0c-1.542 0-2.793 1.396-2.793 3.116 0 1.719 1.251 3.115 2.793 3.115 1.541 0 2.793-1.396 2.793-3.115s-1.252-3.116-2.793-3.116m0 11.424c-1.542 0-2.793 1.395-2.793 3.115 0 1.719 1.251 3.115 2.793 3.115 1.541 0 2.793-1.396 2.793-3.115s-1.252-3.115-2.793-3.115m16.758 0c-1.541 0-2.793 1.395-2.793 3.115 0 1.719 1.252 3.115 2.793 3.115s2.793-1.396 2.793-3.115-1.251-3.115-2.793-3.115m-8.379 5.192c-1.542 0-2.793 1.396-2.793 3.115s1.251 3.116 2.793 3.116 2.793-1.396 2.793-3.116c0-1.719-1.251-3.115-2.793-3.115" style="fill:#ffe" transform="matrix(1.07407 0 0 .96296 -622.815 -2175.148)"/>
      <path d="M516 1128H292v-18.222L332 1092l36 16 36-16 36 16 36-16 40 17.778z" style="fill:#699655" transform="translate(0 -582)"/>
      <path d="M412 1032v8h-16v-8zm32 16a4 4 0 0 1 4 4v12h-88v-12a4 4 0 0 1 4-4zm-100 40.579V1072h119v17.023l-23 10.222-36-16-36 16z" style="fill:#ffe" transform="translate(0 -582)"/>
      <path d="M276 15V0h256v15zM518 .82H290v13.36h228z" style="fill:#699655" transform="matrix(1 0 0 17.06667 0 306)"/>
    </g>
  </g>
</svg>
