<svg viewBox="0 0 256 256" xmlns="http://www.w3.org/2000/svg" xml:space="preserve" style="fill-rule:evenodd;clip-rule:evenodd;stroke-linejoin:round;stroke-miterlimit:2">
  <desc>Traced by Dogo314</desc>
  <g transform="translate(-276 -306)">
    <path style="fill:none" d="M276 306h256v256H276z"/>
    <clipPath id="a">
      <path d="M276 306h256v256H276z"/>
    </clipPath>
    <g clip-path="url(#a)">
      <path style="fill:#011419" transform="translate(0 306)" d="M276 0h256v256H276z"/>
      <path d="M388 1553.443V1541l17 17h19v24h32v-24h19l17-17v101l-16 16h-64v-67.357zm84-3.443h-64l-20-20v-16h104v16zm-24 8v16h-16v-16z" style="fill:#55b9d2" transform="translate(0 -1164)"/>
      <path d="m1468 1554 8 24h12v-16l20 31v58l-20 31v-16h-12l-8 24h-16l-8-24h-12v16l-20-31v-58l20-31v16h12l8-24zm-20.621 87.593-3.665 3.664-5.7-5.7-4.885 4.886 16.285 16.286 4.886-4.886-6.514-6.514 3.664-3.665 1.641 1.641a9.77 9.77 0 0 0 13.818 0l1.234-1.234 3.257 3.258-6.514 6.514 4.885 4.886 16.286-16.286-4.886-4.886-5.7 5.7-3.257-3.257 16.286-16.286v-19.543h-4.886c0-11.684-10.581-21.171-23.614-21.171s-23.614 9.487-23.614 21.171h-4.886v19.543zm5.292-4.479a2.444 2.444 0 0 1 0 4.886 2.444 2.444 0 0 1 0-4.886m14.658-8.957a2.444 2.444 0 0 1 0 4.886 2.444 2.444 0 0 1 0-4.886m-7.329 4.072a2.444 2.444 0 0 1 0 4.885 2.444 2.444 0 0 1 0-4.885m0 8.957a2.444 2.444 0 1 1-2.443 2.443 2.444 2.444 0 0 1 2.443-2.443m7.329-4.072a2.444 2.444 0 0 1 0 4.886 2.444 2.444 0 0 1 0-4.886m-14.658-8.957a2.444 2.444 0 0 1 0 4.886 2.444 2.444 0 0 1 0-4.886m25.243-21.986v15.472l-6.514 4.886-11.4-7.329-11.4 7.329-6.514-4.886v-15.472zm-17.914 17.1a2.444 2.444 0 1 1-2.443 2.443 2.445 2.445 0 0 1 2.443-2.443" style="fill:#ffe" transform="translate(-1104 -1164)"/>
      <path d="M276 15V0h256v15zM518 .82H290v13.36h228z" style="fill:#55b9d2" transform="matrix(1 0 0 17.06667 0 306)"/>
    </g>
  </g>
</svg>
