<svg viewBox="0 0 256 256" xmlns="http://www.w3.org/2000/svg" xml:space="preserve" style="fill-rule:evenodd;clip-rule:evenodd;stroke-linejoin:round;stroke-miterlimit:2">
  <desc>Traced by Dogo314</desc>
  <g transform="scale(.24758 .23704)">
    <path style="fill:none" d="M0 0h1034v1080H0z"/>
    <clipPath id="a">
      <path d="M0 0h1034v1080H0z"/>
    </clipPath>
    <g clip-path="url(#a)">
      <path style="fill:#ffe900" transform="matrix(4.15261 0 0 4.82143 -29.068 -154.286)" d="M7 32h249v224H7z"/>
      <path d="m373.117 783.095-183.285-188.25V350.157h60.675c4.35 0 8.518-1.835 11.56-5.09s4.693-7.652 4.588-12.197q-.08-2.949-.08-5.915c0-131.557 112.209-238.363 250.421-238.363s250.422 106.806 250.422 238.363q0 2.966-.077 5.915c-.105 4.545 1.547 8.937 4.588 12.191s7.206 5.09 11.556 5.09l60.675.006v244.688l-183.284 188.25 29.8 31.124 59.604-62.254c4.548-4.747 10.712-7.414 17.138-7.414s12.59 2.667 17.138 7.414l22.27 23.263c4.549 4.747 7.102 11.183 7.102 17.9 0 6.71-2.553 13.151-7.101 17.898L639.149 986.167c-4.548 4.747-10.711 7.415-17.137 7.415s-12.59-2.668-17.138-7.415l-22.271-23.27c-4.548-4.746-7.101-11.182-7.101-17.898 0-6.71 2.553-13.152 7.1-17.9l51.527-53.818-30.277-31.62-2.036 2.092c-8.078 8.436-24.234 29.528-84.82 29.528s-76.742-21.092-84.82-29.528l-2.036-2.092-30.277 31.62L451.39 927.1c4.548 4.747 7.1 11.188 7.1 17.899s-2.552 13.152-7.1 17.899l-22.272 23.27c-4.548 4.746-10.711 7.414-17.137 7.414s-12.59-2.668-17.138-7.415l-167.678-175.14c-4.548-4.748-7.1-11.19-7.1-17.9s2.552-13.152 7.1-17.899l22.272-23.263c4.548-4.747 10.711-7.414 17.137-7.414s12.59 2.667 17.138 7.414l59.605 62.254zm333.715-432.938H327.16c-4.463 0-8.078 3.78-8.078 8.436v139.22l76.742 80.154L504.88 506.25h24.234l109.055 71.718 76.742-80.153V358.593c0-4.655-3.615-8.436-8.078-8.436M516.996 767.814c-11.148 0-20.195 9.451-20.195 21.092S505.848 810 516.996 810s20.195-9.452 20.195-21.093-9.047-21.092-20.195-21.092m84.82-151.877c-11.147 0-20.195 9.45-20.195 21.098s9.048 21.092 20.195 21.092 20.196-9.451 20.196-21.092-9.048-21.098-20.196-21.098m-84.82 50.626c-11.148 0-20.195 9.45-20.195 21.092s9.047 21.098 20.195 21.098 20.195-9.451 20.195-21.098-9.047-21.092-20.195-21.092m0-101.252c-11.148 0-20.195 9.457-20.195 21.098s9.047 21.092 20.195 21.092 20.195-9.45 20.195-21.092-9.047-21.098-20.195-21.098m84.82 151.878c-11.147 0-20.195 9.45-20.195 21.092s9.048 21.098 20.195 21.098 20.196-9.457 20.196-21.098-9.048-21.092-20.196-21.092m-169.64-101.252c-11.148 0-20.195 9.45-20.195 21.098s9.047 21.092 20.195 21.092 20.195-9.451 20.195-21.092-9.047-21.098-20.195-21.098m0 101.252c-11.148 0-20.195 9.45-20.195 21.092s9.047 21.098 20.195 21.098 20.195-9.457 20.195-21.098-9.047-21.092-20.195-21.092"/>
    </g>
  </g>
</svg>
