<svg viewBox="0 0 256 256" xmlns="http://www.w3.org/2000/svg" xml:space="preserve" style="fill-rule:evenodd;clip-rule:evenodd;stroke-linejoin:round;stroke-miterlimit:2">
  <desc>Traced by Dogo314</desc>
  <g transform="scale(.24758 .23704)">
    <path style="fill:none" d="M0 0h1034v1080H0z"/>
    <clipPath id="a">
      <path d="M0 0h1034v1080H0z"/>
    </clipPath>
    <g clip-path="url(#a)">
      <path style="fill:#ffe900" transform="matrix(4.15261 0 0 4.82143 -29.068 -154.286)" d="M7 32h249v224H7z"/>
      <path d="M328.072 591.574c-20.082 40.938-28.063 64.475-53.417 87.644C206.472 741.533 97.56 622.835 141.366 540c28.193-53.308 41.684-72.777 54.281-86.741zM223.319 424.709c43.828-48.49 52.322-93.846 115.961-150.49 52.508-46.736 137.538-67.5 177.719-67.5 56.547 0 105.016 33.75 105.016 92.812 0 56.012-35.415 104.49-72.703 143.437-61.56 64.298-145.867 25.241-201.877 112.548-24.404-57.253-70.87-115.425-124.116-130.806m313.484 240.903 132.424 138.316c-13.37 13.158-32.01 27.249-83.047 56.695-79.31 45.757-192.954-68.002-133.289-139.218 22.183-26.481 44.717-34.818 83.912-55.793m159.752 109.413c-14.722-55.616-70.42-104.148-125.23-129.638 83.588-58.501 46.194-146.56 107.753-210.857 37.289-38.948 83.702-75.938 137.328-75.938 56.547 0 88.86 50.625 88.86 109.688 0 41.968-19.88 130.781-64.625 185.625-54.233 66.47-97.657 75.342-144.086 121.12"/>
    </g>
  </g>
</svg>
