<svg viewBox="0 0 256 256" xmlns="http://www.w3.org/2000/svg" xml:space="preserve" style="fill-rule:evenodd;clip-rule:evenodd;stroke-linejoin:round;stroke-miterlimit:2">
  <desc>Traced by Dogo314</desc>
  <g transform="scale(.24758 .23704)">
    <g clip-path="url(#a)">
      <path style="fill:#ffe900" transform="matrix(4.15261 0 0 4.82143 -29.068 -154.286)" d="M7 32h249v224H7z"/>
      <path d="M456.68 805.505H348.97a86.291 90.312 0 0 1-60.93-26.36 85.935 89.938 0 0 1-25.236-63.639v-558a85.935 89.938 0 0 1 25.236-63.643 86.291 90.312 0 0 1 60.93-26.36h336.05a86.291 90.312 0 0 1 60.93 26.36 85.935 89.938 0 0 1 25.236 63.643v558a85.935 89.938 0 0 1-25.236 63.638 86.291 90.312 0 0 1-60.93 26.361H568.694v49.501l-30.155 35.999h-.058c-.696 11.145-2.502 39.966-3.291 51.42-.37 5.45-.13 11.756.196 16.624 3.617-1.503 8.018-3.524 11.849-5.83 27.363-16.466 97.23-57.16 152.635-80.127 26.99-11.192 51.142-17.96 67.009-17.96 64.252 0 90.354 53.753 90.354 89.873 0 9.946-3.042 24-7.965 38.654-9.44 28.093-25.147 59.354-25.147 59.354a25.776 26.977 0 0 1-34.749 11.28 25.669 26.865 0 0 1-10.8-36.296s10.23-20.322 18.413-41.782c4.42-11.593 8.79-23.397 8.79-31.21 0-15.066-12.095-36.125-38.896-36.125-11.448 0-28.555 6.096-48.025 14.17-52.992 21.964-119.764 60.997-145.932 76.744-35.797 21.54-59.165 16.99-71.856 5.998-6.663-5.774-12.032-14.194-14.998-25.89-2.59-10.23-3.384-24.157-2.207-41.32.771-11.224 2.395-37.123 3.046-47.577h-.072l-30.155-35.999zm271.423-589.5v-18.001c0-39.765-30.864-71.997-68.935-71.997H374.822c-38.071 0-68.935 32.232-68.935 71.997v477c0 39.765 30.864 72.002 68.935 72.002h284.346c38.071 0 68.935-32.237 68.935-72.002V414.005H654.86c-16.642 0-30.155-14.114-30.155-31.5s13.513-31.499 30.155-31.499h73.243v-72.002H654.86c-16.642 0-30.155-14.113-30.155-31.5s13.513-31.498 30.155-31.498zm-30.16 260.999v193.5a42.99 44.992 0 0 1-12.615 31.822 43.123 45.133 0 0 1-30.468 13.18H379.13a43.123 45.133 0 0 1-30.468-13.18 42.99 44.992 0 0 1-12.616-31.822V449.44c35.114-14.674 61.265-30.935 99.09-30.935 68.935 0 129.25 58.5 262.808 58.5"/>
    </g>
  </g>
</svg>
