<svg viewBox="0 0 256 256" xmlns="http://www.w3.org/2000/svg" xml:space="preserve" style="fill-rule:evenodd;clip-rule:evenodd;stroke-linejoin:round;stroke-miterlimit:2">
  <desc>Traced by Dogo314</desc>
  <g transform="scale(.24758 .23704)">
    <path style="fill:none" d="M0 0h1034v1080H0z"/>
    <clipPath id="a">
      <path d="M0 0h1034v1080H0z"/>
    </clipPath>
    <g clip-path="url(#a)">
      <path style="fill:#ffe900" transform="matrix(4.15261 0 0 4.82143 -29.068 -154.286)" d="M7 32h249v224H7z"/>
      <path d="m730.11 755.158 41.222 44.445-85.12 106.046-56.404-23.566-23.588 86.765-89.222 26.779-89.222-26.78-23.587-86.764-56.405 23.566-85.12-106.046 41.223-44.445h51.386a52.303 54.63 0 0 0-1.336 12.31c0 30.151 23.436 54.63 52.303 54.63s52.302-24.479 52.302-54.63a57 57 0 0 0-1.335-12.31H576.79a52.303 54.63 0 0 0-1.335 12.31c0 30.151 23.436 54.63 52.303 54.63s52.302-24.479 52.302-54.63a57 57 0 0 0-1.335-12.31zm-213.112 66.94-33.843 53.558 16.31 17.036 17.533-27.748 17.533 27.748 16.31-17.036zm345.954-591.353L686.8 429.025c-43.374-33.202-99.562-57.774-169.803-57.774s-126.428 24.572-169.803 57.773l-246.22-277.149 343.32 200.254-35.342-44.16-13.126-109.688 80.78 88.594 40.391-164.532 40.391 164.532 80.78-88.594-16.155 135 222.588-129.833-52.108-25.39 140.527-26.183-60.586 135zm9.483 469.569H161.561v-33.75c64.626 0 96.938-33.75 113.094-75.938 20.893-54.558 96.529-177.188 242.343-177.188s221.45 122.63 242.344 177.188c16.156 42.187 48.468 75.938 113.093 75.938z"/>
    </g>
  </g>
</svg>
