<svg viewBox="0 0 256 256" xmlns="http://www.w3.org/2000/svg" xml:space="preserve" style="fill-rule:evenodd;clip-rule:evenodd;stroke-linejoin:round;stroke-miterlimit:2">
  <desc>Traced by Dogo314</desc>
  <g transform="scale(.24758 .23704)">
    <path style="fill:none" d="M0 0h1034v1080H0z"/>
    <clipPath id="a">
      <path d="M0 0h1034v1080H0z"/>
    </clipPath>
    <g clip-path="url(#a)">
      <path style="fill:#ffe900" transform="matrix(4.15261 0 0 4.82143 -29.068 -154.286)" d="M7 32h249v224H7z"/>
      <path d="m516.999 101.25 327.164 75.938v586.406L516.999 978.75 189.835 763.594V177.188zm0 151.875-195.644 68.458 13.697 202.301-60.647 65.391 81.19 101.149 53.8-22.478 22.501 82.76 85.103 25.544 85.103-25.545 22.502-82.759 53.8 22.478 81.193-101.149-60.65-65.39 13.696-202.302zm0 357.607 32.28 51.084-15.554 16.251-16.726-26.468-16.726 26.468-15.554-16.25zM411.353 506.516c27.535 0 49.887 23.346 49.887 52.106s-22.352 52.11-49.887 52.11-49.89-23.351-49.89-52.11 22.356-52.106 49.89-52.106m211.292 0c27.534 0 49.89 23.346 49.89 52.106s-22.356 52.11-49.89 52.11-49.887-23.351-49.887-52.11 22.352-52.106 49.887-52.106"/>
    </g>
  </g>
</svg>
