<svg viewBox="0 0 256 256" xmlns="http://www.w3.org/2000/svg" xml:space="preserve" style="fill-rule:evenodd;clip-rule:evenodd;stroke-linejoin:round;stroke-miterlimit:2">
  <desc>Traced by Dogo314</desc>
  <g transform="scale(.24758 .23704)">
    <path style="fill:none" d="M0 0h1034v1080H0z"/>
    <clipPath id="a">
      <path d="M0 0h1034v1080H0z"/>
    </clipPath>
    <g clip-path="url(#a)">
      <path style="fill:#ffe900" transform="matrix(4.15261 0 0 4.82143 -29.068 -154.286)" d="M7 32h249v224H7z"/>
      <path d="m517.001 286.875 189.332 66.248-13.253 195.776 58.693 63.281L673.2 710.07l-52.066-21.753-21.774 80.09-82.359 24.72-82.36-24.72-21.773-80.09-52.066 21.753-78.573-97.889 58.693-63.28-13.253-195.777zm0 346.07-31.24 49.438 15.056 15.725L517 672.495l16.184 25.613 15.056-15.725zm102.24-100.855c-26.647 0-48.28 22.595-48.28 50.427s21.633 50.427 48.28 50.427 48.279-22.595 48.279-50.427-21.633-50.427-48.28-50.427m-204.478 0c-26.647 0-48.28 22.595-48.28 50.427s21.633 50.427 48.28 50.427 48.28-22.595 48.28-50.427-21.634-50.427-48.28-50.427M221.258 659.538 44.428 540l176.83-119.538C207.49 457.549 199.94 497.86 199.94 540s7.551 82.452 21.318 119.538m5.699-253.415L182.84 190.976l205.984 46.078c-72.015 33.322-129.965 93.85-161.868 169.069M402.554 231.1 517 46.406l114.447 184.695c-35.507-14.378-74.102-22.266-114.447-22.266s-78.94 7.888-114.447 22.266m242.623 5.953 205.984-46.078-44.116 215.147c-31.903-75.22-89.853-135.747-161.868-169.07m167.567 183.409L989.574 540l-176.83 119.538c13.767-37.086 21.318-77.398 21.318-119.538s-7.551-82.451-21.318-119.538m-5.699 253.416 44.116 215.146-205.984-46.078c72.015-33.322 129.965-93.85 161.868-169.068m-175.597 175.02-114.447 184.696L402.554 848.9c35.507 14.378 74.102 22.266 114.447 22.266s78.94-7.888 114.447-22.266m-242.623-5.953-205.984 46.078 44.116-215.146c31.903 75.218 89.853 135.746 161.868 169.068"/>
    </g>
  </g>
</svg>
