<svg viewBox="0 0 256 256" xmlns="http://www.w3.org/2000/svg" xml:space="preserve" style="fill-rule:evenodd;clip-rule:evenodd;stroke-linejoin:round;stroke-miterlimit:2">
  <desc>Traced by Dogo314</desc>
  <g transform="scale(.24758 .23704)">
    <path style="fill:none" d="M0 0h1034v1080H0z"/>
    <clipPath id="a">
      <path d="M0 0h1034v1080H0z"/>
    </clipPath>
    <g clip-path="url(#a)">
      <path style="fill:#ffe900" transform="matrix(4.15261 0 0 4.82143 -29.068 -154.286)" d="M7 32h249v224H7z"/>
      <path d="m517 105.469 236.664 82.81-16.567 244.72 73.366 79.1-98.215 122.36-65.083-27.19-27.216 100.113-102.95 30.899-102.948-30.9-27.216-100.112-65.083 27.19-98.215-122.36 73.365-79.1-16.566-244.72zm0 432.586-39.05 61.798 18.82 19.657L517 587.493l20.23 32.017 18.82-19.657zm127.798-126.068c-33.308 0-60.349 28.244-60.349 63.034s27.041 63.034 60.35 63.034 60.349-28.244 60.349-63.034-27.041-63.034-60.35-63.034m-255.597 0c-33.308 0-60.349 28.244-60.349 63.034s27.041 63.034 60.35 63.034 60.349-28.244 60.349-63.034-27.042-63.034-60.35-63.034M267.894 746.235c-22.072-34.687-37.684-74.24-45.03-116.778l77.003 95.934 39.066-16.322 16.214 59.643L517 817.29l161.853-48.578 16.214-59.643 39.066 16.322 77.004-95.934c-7.348 42.538-22.96 82.09-45.032 116.778l30.788 119.859-114.754-32.158c-31.575 21.92-67.361 37.738-105.811 45.84L517 987.186l-59.328-107.41c-38.45-8.102-74.236-23.92-105.811-45.84l-114.754 32.158z"/>
    </g>
  </g>
</svg>
