<svg viewBox="0 0 256 256" xmlns="http://www.w3.org/2000/svg" xml:space="preserve" style="fill-rule:evenodd;clip-rule:evenodd;stroke-linejoin:round;stroke-miterlimit:2">
  <desc>Traced by Dogo314</desc>
  <g transform="scale(.24758 .23704)">
    <path style="fill:none" d="M0 0h1034v1080H0z"/>
    <clipPath id="a">
      <path d="M0 0h1034v1080H0z"/>
    </clipPath>
    <g clip-path="url(#a)">
      <path style="fill:#ffe900" transform="matrix(4.15261 0 0 4.82143 -29.068 -154.286)" d="M7 32h249v224H7z"/>
      <path d="M516.999 122.344c120.376 0 218.11 102.08 218.11 227.812h56.546V573.75l-72.78 60.016-54.394-110.641h22.159V345.938H347.359v177.187h22.158l-54.394 110.64-72.78-60.015V350.156h56.547c0-125.731 97.733-227.812 218.109-227.812m52.508 341.719 28.273 59.062h42.467l70.873 144.159-129.496 108.865v.101c0 11.644-9.047 21.094-20.195 21.094v16.875c11.148 0 20.195 9.45 20.195 21.094s-9.047 21.093-20.195 21.093v16.875c11.148 0 20.195 9.45 20.195 21.094s-9.047 21.094-20.195 21.094v16.875c11.148 0 20.195 9.45 20.195 21.094s-9.047 21.093-20.195 21.093h-88.86c-11.147 0-20.195-9.45-20.195-21.093s9.048-21.094 20.195-21.094v-16.875c-11.147 0-20.195-9.45-20.195-21.094s9.048-21.094 20.195-21.094v-16.875c-11.147 0-20.195-9.45-20.195-21.093s9.048-21.094 20.195-21.094v-16.875c-11.147 0-20.195-9.45-20.195-21.094v-.101L322.878 667.284l70.873-144.159h42.467l28.273-59.062zm-214.07 185.625a12.121 12.66 0 0 0 0 25.312 12.121 12.66 0 0 0 0-25.312m66.713-94.361a12.121 12.66 0 1 0-22.284-6.89 12.121 12.66 0 0 0 22.284 6.89m256.411 94.36a12.121 12.66 0 0 0 0 25.313 12.121 12.66 0 0 0 0-25.312m-66.713-94.361a12.12 12.659 0 1 0 20.333-13.783 12.12 12.659 0 0 0-20.333 13.783"/>
    </g>
  </g>
</svg>
