<svg viewBox="0 0 256 256" xmlns="http://www.w3.org/2000/svg" xml:space="preserve" style="fill-rule:evenodd;clip-rule:evenodd;stroke-linejoin:round;stroke-miterlimit:2">
  <desc>Traced by Dogo314</desc>
  <g transform="scale(.24758 .23704)">
    <path style="fill:none" d="M0 0h1034v1080H0z"/>
    <clipPath id="a">
      <path d="M0 0h1034v1080H0z"/>
    </clipPath>
    <g clip-path="url(#a)">
      <path style="fill:#ffe900" transform="matrix(4.15261 0 0 4.82143 -29.068 -154.286)" d="M7 32h249v224H7z"/>
      <path d="M307.228 834.405c44.118 34.366 96.214 58.172 152.838 67.825a60.945 63.657 0 0 0-2.553 33.754c-164.184-26.734-294.04-162.367-319.635-333.855a60.99 63.703 0 0 0 32.316-2.666c14.181 90.762 60.28 170.382 125.85 225.863a355.437 371.25 0 0 0 11.184 9.079M790.17 309.217c-53.118-68.487-129.347-116.636-216.243-131.448a60.945 63.657 0 0 0 2.552-33.754c164.184 26.734 294.04 162.367 319.635 333.855a60.99 63.703 0 0 0-32.316 2.666c-9.363-59.923-32.64-114.99-66.245-161.46a371.594 388.125 0 0 0-7.383-9.859M516.996 113.906c22.292 0 40.39 18.904 40.39 42.187s-18.098 42.188-40.39 42.188-40.39-18.904-40.39-42.188 18.099-42.187 40.39-42.187m407.945 426.093c0 23.284-18.099 42.188-40.39 42.188s-40.391-18.904-40.391-42.188 18.099-42.187 40.39-42.187 40.391 18.904 40.391 42.187M516.996 966.094c-22.291 0-40.39-18.904-40.39-42.187s18.099-42.188 40.39-42.188 40.39 18.904 40.39 42.188-18.098 42.187-40.39 42.187M109.051 540c0-23.283 18.1-42.187 40.39-42.187s40.391 18.904 40.391 42.187-18.099 42.188-40.39 42.188-40.39-18.904-40.39-42.188m28.826-62.129c25.595-171.488 155.451-307.12 319.635-333.855a60.99 63.703 0 0 0 2.553 33.754c-148.38 25.292-265.657 147.787-289.872 302.767a60.945 63.657 0 0 0-32.316-2.666M896.114 602.13c-25.595 171.488-155.45 307.12-319.635 333.855a60.99 63.703 0 0 0-2.552-33.754c148.379-25.292 265.657-147.787 289.87-302.767a60.945 63.657 0 0 0 32.317 2.666M356.448 762.235c-64.391-50.849-106.03-131.503-106.03-222.236 0-153.672 119.451-278.437 266.578-278.437 86.868 0 164.087 43.491 212.77 110.746a266.578 278.438 0 0 1 16.334 25.338C769.898 439.311 783.574 488 783.574 540c0 153.673-119.451 278.438-266.578 278.438-49.56 0-95.98-14.158-135.753-38.808a266.578 278.438 0 0 1-24.795-17.394M471.04 558.17l196.682-205.432c-40.75-35.83-93.343-57.426-150.726-57.426-129.294 0-234.265 109.641-234.265 244.687 0 59.936 20.676 114.869 54.98 157.432l76.426-79.828a46.288 48.347 0 0 1-14.092-32.332 46.288 48.347 0 0 1 4.492-23.482zm-69.165-17.356s-17.304-103.625-18.091-119.412c-1.567-31.392 21.56-58.206 51.615-59.843s55.723 22.524 57.29 53.911c.788 15.791-2.076 120.513-2.076 120.513zM706.67 396.43a238.305 248.906 0 0 0-10.388-13.863L366.27 727.261a234.637 245.076 0 0 0 41.473 29.203c32.627 18.018 69.807 28.223 109.252 28.223 129.294 0 234.266-109.641 234.266-244.688 0-41.381-9.856-80.375-27.248-114.56a234.265 244.688 0 0 0-17.344-29.008m-95.863 266.013c2.723 7.32 3.78 15.437 2.743 23.769-3.304 26.553-26.626 45.31-52.047 41.858s-43.38-27.814-40.076-54.367a46.247 48.305 0 0 1 8.47-22.245zm17.312-183.967a54.447 56.869 0 0 1 13.749 45.668c-1.951 15.677-22.85 118.142-22.85 118.142l-88.12-11.964s.203-24.102.623-50.95z"/>
    </g>
  </g>
</svg>
