<svg viewBox="0 0 256 256" xmlns="http://www.w3.org/2000/svg" xml:space="preserve" style="fill-rule:evenodd;clip-rule:evenodd;stroke-linejoin:round;stroke-miterlimit:2">
  <desc>Traced by Dogo314</desc>
  <g transform="scale(.24758 .23704)">
    <path style="fill:none" d="M0 0h1034v1080H0z"/>
    <clipPath id="a">
      <path d="M0 0h1034v1080H0z"/>
    </clipPath>
    <g clip-path="url(#a)">
      <path style="fill:#ffe900" transform="matrix(4.15261 0 0 4.82143 -29.068 -154.286)" d="M7 32h249v224H7z"/>
      <path d="M880.514 506.25a40.39 42.188 0 0 1 40.39 42.187v244.687a72.703 75.938 0 0 1-72.703 75.938h-84.82c-16.156 0-24.234-4.219-32.312-12.656 0 0-122.8 67.5-230.227 67.5s-100.976-46.407-258.5-46.407c-80.78 0-100.976-33.75-100.976-92.812 0 0-40.39-33.598-40.39-156.094 0-147.656 60.585-253.125 76.741-329.062 14.55-68.378 22.389-97.302 28.274-105.469s72.703-71.719 214.07-71.719c20.195 0 32.312 50.03 32.312 88.594S424.1 251.905 424.1 291.093c0 12.656-6.269 25.313-24.234 25.313-40.39 0-72.703 29.531-96.938 29.531l-4.039 92.812c48.469 29.532 84.82 88.594 84.82 147.657 80.782-50.625 141.368-37.969 185.797-8.438 20.195-46.406 100.977-71.719 141.367-71.719z"/>
    </g>
  </g>
</svg>
