<svg viewBox="0 0 256 256" xmlns="http://www.w3.org/2000/svg" xml:space="preserve" style="fill-rule:evenodd;clip-rule:evenodd;stroke-linejoin:round;stroke-miterlimit:2">
  <desc>Traced by Dogo314</desc>
  <g transform="scale(.24758 .23704)">
    <path style="fill:none" d="M0 0h1034v1080H0z"/>
    <clipPath id="a">
      <path d="M0 0h1034v1080H0z"/>
    </clipPath>
    <g clip-path="url(#a)">
      <path style="fill:#ffe900" transform="matrix(4.15261 0 0 4.82143 -29.068 -154.286)" d="M7 32h249v224H7z"/>
      <path d="m516.999 101.25 327.164 75.938v586.406L516.999 978.75 189.835 763.594V177.188zm0 206.719 157.523 33.75-20.195-80.156L517 202.5l-137.328 21.094-20.195 118.125zm-52.423 44.98c1.81 29.962 31.396 80.215 48.384 102.676-40.39 71.719-16.156 113.906-52.508 189.844h-40.39L387.749 675l16.156 25.313-28.273 67.5 32.312 21.093 12.118-8.437 60.586 21.093s52.507-59.062 52.507-84.375c0-12.656-8.078-42.187-8.078-42.187 28.274-59.062 52.508-84.375 68.664-118.125 14.828-30.974 20.195-54.844 32.313-67.5 5.323-5.56 20.195-21.094 20.195-29.531s-12.117-21.85-12.117-63.281c0-3.236-.594-15.791-1.33-30.034L517 341.72z"/>
    </g>
  </g>
</svg>
