<svg viewBox="0 0 256 256" xmlns="http://www.w3.org/2000/svg" xml:space="preserve" style="fill-rule:evenodd;clip-rule:evenodd;stroke-linejoin:round;stroke-miterlimit:2">
  <desc>Traced by Dogo314</desc>
  <g transform="scale(.24758 .23704)">
    <path style="fill:none" d="M0 0h1034v1080H0z"/>
    <clipPath id="a">
      <path d="M0 0h1034v1080H0z"/>
    </clipPath>
    <g clip-path="url(#a)">
      <path style="fill:#ffe900" transform="matrix(4.15261 0 0 4.82143 -29.068 -154.286)" d="M7 32h249v224H7z"/>
      <path d="M516.995 101.25 755.3 337.5 516.995 755.156 278.691 337.5zm148.94 491.759c42.556 41.584 69.17 100.756 69.17 166.366 0 125.731-97.733 227.813-218.11 227.813S298.886 885.106 298.886 759.375c0-65.61 26.614-124.782 69.17-166.366l25.562 44.803c-28.673 31.737-46.263 74.524-46.263 121.563 0 97.79 76.015 177.188 169.64 177.188s169.641-79.397 169.641-177.188c0-47.04-17.59-89.826-46.263-121.563zm-51.784 90.758a120.606 125.972 0 0 1 24.016 75.608c0 69.85-54.297 126.563-121.172 126.563s-121.171-56.713-121.171-126.563a120.606 125.972 0 0 1 24.016-75.608l28.633 50.186a72.703 75.938 0 0 0-4.18 25.422c0 41.91 32.578 75.938 72.702 75.938s72.704-34.029 72.704-75.938c0-8.914-1.475-17.474-4.18-25.422z"/>
    </g>
  </g>
</svg>
