<svg viewBox="0 0 256 256" xmlns="http://www.w3.org/2000/svg" xml:space="preserve" style="fill-rule:evenodd;clip-rule:evenodd;stroke-linejoin:round;stroke-miterlimit:2">
  <desc>Traced by Dogo314</desc>
  <path style="fill:none" d="M0 0h433v421H0z" transform="scale(.59122 .60808)"/>
  <path d="m240 120-60 103.923H60L0 120 60 16.077h120z" style="fill:#ffdf21" transform="scale(.59122 .60808) matrix(1.6914 0 0 1.64453 13.531 13.156)"/>
  <path d="M1520.796 321a233 233 0 0 1 2.061-10H1512v-16h15.081a213 213 0 0 1 2.919-9h58a213 213 0 0 1 2.919 9H1606v16h-10.857a233 233 0 0 1 2.061 10zm77.712 8c.943 6.654 1.492 13.118 1.492 19 0 16-4.5 39.5-11.875 59h-58.25C1522.5 387.5 1518 364 1518 348c0-5.882.549-12.346 1.492-19zm-13.68 86c-7.002 15.574-15.954 27-25.828 27s-18.826-11.426-25.828-27z" style="fill:none" transform="scale(.59122 .60808) matrix(1.6914 0 0 1.64453 -2420.402 -381.531)"/>
  <path d="M1362 402v11h-21v-11zm8 14v11h-37v-11zm-37-55c33 0 38 20 38 38h-38zm22.054 0H1383v11h-14.626a29.4 29.4 0 0 0-5.11-5.82c-2.28-1.992-4.989-3.75-8.21-5.18M1325 407h-34.125C1283.5 387.5 1279 364 1279 348c0-5.882.549-12.346 1.492-19h79.016c.943 6.654 1.492 13.118 1.492 19 0 1.596-.045 3.266-.133 5H1325zm8.38 28c-4.176 4.404-8.674 7-13.38 7-9.874 0-18.826-11.426-25.828-27H1325v20zm-51.584-114a233 233 0 0 1 2.061-10H1273v-16h15.081a213 213 0 0 1 2.919-9h58a213 213 0 0 1 2.919 9H1367v16h-10.857a233 233 0 0 1 2.061 10z" style="fill:#292c29" transform="scale(.59122 .60808) matrix(1.6914 0 0 1.64453 -2016.156 -381.531)"/>
</svg>
