<svg viewBox="0 0 256 256" xmlns="http://www.w3.org/2000/svg" xml:space="preserve" style="fill-rule:evenodd;clip-rule:evenodd;stroke-linejoin:round;stroke-miterlimit:2">
  <desc>Traced by Dogo314</desc>
  <path style="fill:none" d="M0 0h433v421H0z" transform="scale(.59122 .60808)"/>
  <path d="m240 120-60 103.923H60L0 120 60 16.077h120z" style="fill:#ffdf21" transform="matrix(.99999 0 0 1 8 8)"/>
  <path d="M1546.16 407h-16.285C1522.5 387.5 1518 364 1518 348c0-5.882.549-12.346 1.492-19h79.016c.943 6.654 1.492 13.118 1.492 19q0 1.374-.044 2.819A18.9 18.9 0 0 0 1590 348c-8.4 0-15.533 5.464-18.04 13.028-8.057.435-14.786 5.902-17.099 13.31l-.039.124C1546.343 376.367 1540 383.949 1540 393a18.95 18.95 0 0 0 6.16 14m-25.364-86a233 233 0 0 1 2.061-10H1512v-16h15.081a213 213 0 0 1 2.919-9h58a213 213 0 0 1 2.919 9H1606v16h-10.857a233 233 0 0 1 2.061 10zm64.032 94c-7.002 15.574-15.954 27-25.828 27s-18.826-11.426-25.828-27zm-7.474-51.022c1.363-5.719 6.511-9.978 12.646-9.978s11.283 4.259 12.646 9.978c-5.036 2.344-8.646 8.636-8.646 16.022 0-5.774 3.772-10.674 8.985-12.367A13 13 0 0 1 1607 367c5.826 0 10.762 3.841 12.412 9.126C1612.985 377.151 1608 384.32 1608 393c0-6.838 5.292-12.451 12-12.962q.495-.038 1-.038c7.175 0 13 5.825 13 13s-5.825 13-13 13h-62c-7.175 0-13-5.825-13-13s5.825-13 13-13q.505 0 1 .038c6.708.511 12 6.124 12 12.962 0-8.68-4.985-15.849-11.412-16.874 1.65-5.285 6.586-9.126 12.412-9.126 1.401 0 2.75.222 4.015.633 5.213 1.693 8.985 6.593 8.985 12.367 0-7.386-3.61-13.678-8.646-16.022" style="fill:#292c29" transform="matrix(.99999 0 0 1 -1430.99 -232.001)"/>
</svg>
