<svg viewBox="0 0 256 256" xmlns="http://www.w3.org/2000/svg" xml:space="preserve" style="fill-rule:evenodd;clip-rule:evenodd;stroke-linejoin:round;stroke-miterlimit:2">
  <desc>Traced by Dogo314</desc>
  <path style="fill:none" d="M0 0h433v421H0z" transform="scale(.59122 .60808)"/>
  <path d="m240 120-60 103.923H60L0 120 60 16.077h120z" style="fill:#ffdf21" transform="scale(.59122 .60808) matrix(1.6914 0 0 1.64453 13.531 13.156)"/>
  <path d="M586.05 135.6 545 176.455l-9.899-9.852 73.1-72.754L600 85.687l-23.201 23.091-9.9-9.852L600 65.982l31 30.853v23.886h25v13.934h-39v-29.858l-21.05 20.951 28.949 28.812L621 166.607l-43.569 7.646L575 160.531l30.689-5.385zM638 63.992c7.727 0 14 6.243 14 13.933s-6.273 13.934-14 13.934-14-6.244-14-13.934 6.273-13.933 14-13.933m-87.771 27.739c-25.882-29.061-31.561-33.714-31.561-41.758 0-9.026 7.363-16.355 16.433-16.355 4.142 0 7.929 1.529 10.821 4.051l-3.779 26.323h9.39zm4.306-51.178a16.44 16.44 0 0 1 13.431-6.935c9.07 0 16.433 7.329 16.433 16.355 0 7.999-5.615 12.645-31.125 41.268l7.65-34.258h-9.391z" style="fill:#292c29" transform="scale(.59122 .60808) matrix(1.44099 0 0 1.40774 -627.304 54.635)"/>
</svg>
