<svg viewBox="0 0 256 256" xmlns="http://www.w3.org/2000/svg" xml:space="preserve" style="fill-rule:evenodd;clip-rule:evenodd;stroke-linejoin:round;stroke-miterlimit:2">
  <desc>Traced by Dogo314</desc>
  <path style="fill:none" d="M0 0h433v421H0z" transform="scale(.59122 .60808)"/>
  <path d="m240 120-60 103.923H60L0 120 60 16.077h120z" style="fill:#ffdf21" transform="scale(.59122 .60808) matrix(1.6914 0 0 1.64453 13.531 13.156)"/>
  <path d="M1307 117.995h-35l-16-14.669h132l19 18.337L1388 140h-21v-25.672h-60zm-51-22.004V71.236l27 24.755zm51 29.339v7.335h-80v-7.335zm0 14.67v7.335h-72V140zm52-18.337v29.339h-44v-29.339z" style="fill:#292c29" transform="scale(.59122 .60808) matrix(1.4648 -.82227 .9224 1.55335 -1827.566 1109.754)"/>
</svg>
