<svg viewBox="0 0 256 256" xmlns="http://www.w3.org/2000/svg" xml:space="preserve" style="fill-rule:evenodd;clip-rule:evenodd;stroke-linejoin:round;stroke-miterlimit:2">
  <desc>Traced by Dogo314</desc>
  <path style="fill:none" d="M0 0h433v421H0z" transform="scale(.59122 .60808)"/>
  <path d="m240 120-60 103.923H60L0 120 60 16.077h120z" style="fill:#ffdf21" transform="scale(.59122 .60808) matrix(1.6914 0 0 1.64453 13.531 13.156)"/>
  <path d="m832 140-40-32V76h8c0-17.661 14.339-32 32-32s32 14.339 32 32h8v32zm0-48.073 8 .073 4 8h12V76h-48v24h12l4-8zM812 164h-32l-16-16v-16h32l16 16zm56 4v-4l-16-8v-16h48v16l-16 8v4l16 8v12h-48v-12zm5.889-9.056h4.222L892 152v-4h-32v4zm-39.423 3.522A21.9 21.9 0 0 0 828.028 178c0 12.127 9.845 21.972 21.972 21.972A21.86 21.86 0 0 0 862.597 196h11.433c-5.48 7.301-14.207 12.028-24.03 12.028-16.573 0-30.028-13.455-30.028-30.028 0-8.286 3.364-15.793 8.799-21.229L820 148h24v24z" style="fill:#292c29" transform="scale(.59122 .60808) matrix(1.6914 0 0 1.64453 -1204.281 13.156)"/>
</svg>
