<svg viewBox="0 0 256 256" xmlns="http://www.w3.org/2000/svg" xml:space="preserve" style="fill-rule:evenodd;clip-rule:evenodd;stroke-linejoin:round;stroke-miterlimit:2">
  <desc>Traced by Dogo314</desc>
  <path style="fill:none" d="M0 0h433v421H0z" transform="scale(.59122 .60808)"/>
  <path d="m240 120-60 103.923H60L0 120 60 16.077h120z" style="fill:#ffdf21" transform="scale(.59122 .60808) matrix(1.6914 0 0 1.64453 13.531 13.156)"/>
  <path d="M784 308v88h-8v-96h32v8zm64 0v32h-16v-8h8v-32h32v8zm-4 104h-52v-96h32v32h32v-32h32v56h-24v20h-20zm28-4h-20v-8h20v-20h8v20h20v8h-20v20h-8z" style="fill:#292c29" transform="scale(.59122 .60808) matrix(1.6914 0 0 1.64453 -1204.281 -381.531)"/>
</svg>
