<svg viewBox="0 0 256 256" xmlns="http://www.w3.org/2000/svg" xml:space="preserve" style="fill-rule:evenodd;clip-rule:evenodd;stroke-linejoin:round;stroke-miterlimit:2">
  <desc>Traced by Dogo314</desc>
  <path style="fill:none" d="M0 0h433v421H0z" transform="scale(.59122 .60808)"/>
  <path d="m240 120-60 103.923H60L0 120 60 16.077h120z" style="fill:#ffdf21" transform="scale(.59122 .60808) matrix(1.6914 0 0 1.64453 13.531 13.156)"/>
  <path d="m832 140-40-32V76h8c0-17.661 14.339-32 32-32s32 14.339 32 32h8v32zm0-48.073 8 .073 4 8h12V76h-48v24h12l4-8zM852 164h-72l-16-16v-16h32l16 16h40l16-16h4v20h-20zm28 4h-20v-8h20v-20h8v20h20v8h-20v20h-8z" style="fill:#292c29" transform="scale(.59122 .60808) matrix(1.6914 0 0 1.64453 -1204.281 13.156)"/>
</svg>
