<svg viewBox="0 0 256 256" xmlns="http://www.w3.org/2000/svg" xml:space="preserve" style="fill-rule:evenodd;clip-rule:evenodd;stroke-linejoin:round;stroke-miterlimit:2">
  <desc>Traced by Dogo314</desc>
  <path style="fill:none" d="M0 0h433v421H0z" transform="scale(.59122 .60808)"/>
  <path d="m240 120-60 103.923H60L0 120 60 16.077h120z" style="fill:#ffdf21" transform="scale(.59122 .60808) matrix(1.6914 0 0 1.64453 13.531 13.156)"/>
  <path d="M56.123 116c.906-14.653 6.751-27.979 15.89-38.33l5.669 5.669C69.978 92.222 65.021 103.552 64.141 116zM77.67 72.013c10.351-9.139 23.677-14.984 38.33-15.89v8.018c-12.448.88-23.778 5.837-32.661 13.541zM124 56.123c14.653.906 27.979 6.751 38.33 15.89l-5.669 5.669c-8.883-7.704-20.213-12.661-32.661-13.541zm43.987 21.547c9.139 10.351 14.984 23.677 15.89 38.33h-8.018c-.88-12.448-5.837-23.778-13.541-32.661zm15.89 46.33c-.906 14.653-6.751 27.979-15.89 38.33l-5.669-5.669c7.704-8.883 12.661-20.213 13.541-32.661zm-21.547 43.987c-10.351 9.139-23.677 14.984-38.33 15.89v-8.018c12.448-.88 23.778-5.837 32.661-13.541zM116 183.877c-14.653-.906-27.979-6.751-38.33-15.89l5.669-5.669c8.883 7.704 20.213 12.661 32.661 13.541zM72.013 162.33c-9.139-10.351-14.984-23.677-15.89-38.33h8.018c.88 12.448 5.837 23.778 13.541 32.661zM80.198 116a39.8 39.8 0 0 1 8.836-21.31l5.691 5.692A31.85 31.85 0 0 0 88.248 116zM94.69 89.034A39.8 39.8 0 0 1 116 80.198v8.05a31.85 31.85 0 0 0-15.618 6.477zM124 80.198c8.04.8 15.383 3.984 21.31 8.836l-5.692 5.691A31.85 31.85 0 0 0 124 88.248zm26.966 14.492a39.8 39.8 0 0 1 8.836 21.31h-8.05a31.85 31.85 0 0 0-6.477-15.618zm8.836 29.31a39.8 39.8 0 0 1-8.836 21.31l-5.691-5.692A31.85 31.85 0 0 0 151.752 124zm-14.492 26.966a39.8 39.8 0 0 1-21.31 8.836v-8.05a31.85 31.85 0 0 0 15.618-6.477zM116 159.802a39.8 39.8 0 0 1-21.31-8.836l5.692-5.691A31.85 31.85 0 0 0 116 151.752zM89.034 145.31A39.8 39.8 0 0 1 80.198 124h8.05a31.85 31.85 0 0 0 6.477 15.618zM120 104c8.831 0 16 7.169 16 16s-7.169 16-16 16-16-7.169-16-16 7.169-16 16-16" style="fill:#292c29" transform="scale(.59122 .60808) matrix(1.6914 0 0 1.64453 13.531 13.156)"/>
</svg>
