<svg viewBox="0 0 256 256" xmlns="http://www.w3.org/2000/svg" xml:space="preserve" style="fill-rule:evenodd;clip-rule:evenodd;stroke-linejoin:round;stroke-miterlimit:2">
  <desc>Traced by Dogo314</desc>
  <path style="fill:none" d="M0 0h433v421H0z" transform="scale(.59122 .60808)"/>
  <path d="m240 120-60 103.923H60L0 120 60 16.077h120z" style="fill:#ffdf21" transform="matrix(.99999 0 0 1 8 8)"/>
  <path d="m1168 316 63 8v104l-63 36-63-36V324zm22 64-5.942 16.058L1168 402l16.058 5.942L1190 424l5.942-16.058L1212 402l-16.058-5.942zm-44-44-5.942 16.058L1124 358l16.058 5.942L1146 380l5.942-16.058L1168 358l-16.058-5.942zm27.709 76.643-11.133-4.12c-8.052 2.863-15.657 4.164-21.934 3.786-5.612-.338-10.087-1.917-12.154-5.497s-1.197-8.244 1.317-13.274c1.892-3.787 4.745-7.715 8.393-11.569l-3.068-8.292c-5.601 5.368-9.883 10.961-12.531 16.26-3.944 7.892-4.331 15.285-1.087 20.903 3.243 5.618 9.839 8.98 18.646 9.51 9.314.561 21.291-2.024 33.551-7.707m-.968-61.419 13.419 4.966c3.281-.499 6.374-.669 9.198-.499 5.612.338 10.087 1.917 12.154 5.497s1.197 8.244-1.317 13.274c-1.512 3.027-3.639 6.144-6.294 9.242l2.267 6.128 2.276.842c3.87-4.219 6.905-8.504 8.957-12.611 3.944-7.892 4.331-15.285 1.087-20.903-3.243-5.618-9.839-8.98-18.646-9.51-6.636-.4-14.623.797-23.101 3.574" style="fill:#292c29" transform="matrix(.99999 0 0 1 -1039.993 -256.002)"/>
</svg>
