<svg viewBox="0 0 256 256" xmlns="http://www.w3.org/2000/svg" xml:space="preserve" style="fill-rule:evenodd;clip-rule:evenodd;stroke-linejoin:round;stroke-miterlimit:2">
  <desc>Traced by Dogo314</desc>
  <path style="fill:none" d="M0 0h433v421H0z" transform="scale(.59122 .60808)"/>
  <path d="m240 120-60 103.923H60L0 120 60 16.077h120z" style="fill:#ffdf21" transform="scale(.59122 .60808) matrix(1.6914 0 0 1.64453 13.531 13.156)"/>
  <path d="M1585 48v68l-40 48 6 18 10 6-4 8-12-4-24-24 18-20c5.4-6 2-19 18-40-12-13-17-28-17-60zm-42.988 60.583L1532 116c-7.991-13.926-16-28-16-68h12c0 30.466 4.542 47.247 14.012 60.583M1567.074 175l-8.576-8.453L1593.954 124l9.207 7.696z" style="fill:#292c29" transform="scale(.59122 .60808) matrix(1.6914 0 0 1.64453 -2422.094 13.156)"/>
</svg>
