<svg viewBox="0 0 256 256" xmlns="http://www.w3.org/2000/svg" xml:space="preserve" style="fill-rule:evenodd;clip-rule:evenodd;stroke-linejoin:round;stroke-miterlimit:2">
  <desc>Traced by Dogo314</desc>
  <path style="fill:none" d="M0 0h433v421H0z" transform="scale(.59122 .60808)"/>
  <path d="m240 120-60 103.923H60L0 120 60 16.077h120z" style="fill:#ffdf21" transform="matrix(.99999 0 0 1 8 8)"/>
  <path d="M2054.001 88.882c.027 43.859.999 34.853.999 53.118 0 23.719-8.634 48-38 48s-38-24.281-38-48c0-18.265.972-9.259.999-53.118-2.64-1.627-9.999-7.127-9.999-17.882 0-6.148 2.194-10.697 5.612-13.854 3.282-3.031 7.825-4.796 13.065-5.136 8.442-.547 13.15-1.01 28.323-1.01s19.881.463 28.323 1.01c5.24.34 9.783 2.105 13.065 5.136C2061.806 60.303 2064 64.852 2064 71c0 10.755-7.359 16.255-9.999 17.882M2017 180c22.641 0 28-19.713 28-38 0-18.522-1-9-1-55l.227-1.676.595-1.442.902-1.255a9 9 0 0 1 1.284-1.171C2048.904 80.011 2054 78.701 2054 71c0-2.853-.811-5.043-2.397-6.508-1.721-1.59-4.177-2.324-6.926-2.502-8.251-.535-12.85-.99-27.677-.99s-19.426.455-27.677.99c-2.749.178-5.205.912-6.926 2.502-1.586 1.465-2.397 3.655-2.397 6.508 0 7.701 5.096 9.011 6.992 10.456.505.385.932.778 1.284 1.171l.902 1.255.595 1.442L1990 87c0 46-1 36.478-1 55 0 18.287 5.359 38 28 38m0-10c-8 0-18-7-18-19v-49h36v49c0 12-10 19-18 19m52.168-105.97c10.501.111 14.979.515 22.155.98 5.24.34 9.783 2.105 13.065 5.136C2107.806 73.303 2110 77.852 2110 84c0 10.755-7.359 16.255-9.999 17.882.027 43.859.999 34.853.999 53.118 0 23.719-8.634 48-38 48-12.21 0-20.836-4.197-26.747-10.807a35.7 35.7 0 0 0 8.731-5.609c4.208 3.969 10.039 6.416 18.016 6.416 22.641 0 28-19.713 28-38 0-18.522-1-9-1-55l.227-1.676.595-1.442.902-1.255a9 9 0 0 1 1.284-1.171C2094.904 93.011 2100 91.701 2100 84c0-2.853-.811-5.043-2.397-6.508-1.721-1.59-4.177-2.324-6.926-2.502-6.825-.443-11.151-.83-20.834-.951.102-.975.157-1.987.157-3.039 0-2.529-.293-4.849-.832-6.97m-8.966 50.97H2081v49c0 12-10 19-18 19-3.7 0-7.827-1.497-11.195-4.293 6.619-10.079 9.195-23.396 9.195-36.707 0-13.166-.505-12.163-.798-27" style="fill:#292c29" transform="matrix(.99999 0 0 1 -1911.987 8)"/>
</svg>
