<svg viewBox="0 0 256 256" xmlns="http://www.w3.org/2000/svg" xml:space="preserve" style="fill-rule:evenodd;clip-rule:evenodd;stroke-linejoin:round;stroke-miterlimit:2">
  <desc>Traced by Dogo314</desc>
  <path style="fill:none" d="M0 0h433v421H0z" transform="scale(.59122 .60808)"/>
  <path d="m240 120-60 103.923H60L0 120 60 16.077h120z" style="fill:#ffdf21" transform="scale(.59122 .60808) matrix(1.6914 0 0 1.64453 13.531 13.156)"/>
  <path d="M2280 43c42.497 0 77 34.503 77 77s-34.503 77-77 77-77-34.503-77-77 34.503-77 77-77m-6 11.27c-31.643 2.857-56.873 28.087-59.73 59.73H2235v12h-20.73c2.857 31.643 28.087 56.873 59.73 59.73V165h12v20.73c31.643-2.857 56.873-28.087 59.73-59.73H2325v-12h20.73c-2.857-31.643-28.087-56.873-59.73-59.73V75h-12zm0 94.107c-13.131-2.766-23-14.428-23-28.377s9.869-25.611 23-28.377zm12-56.754c13.131 2.766 23 14.428 23 28.377s-9.869 25.611-23 28.377z" style="fill:#292c29" transform="scale(.59122 .60808) matrix(1.6914 0 0 1.64453 -3639.906 13.156)"/>
</svg>
