<svg viewBox="0 0 256 256" xmlns="http://www.w3.org/2000/svg" xml:space="preserve" style="fill-rule:evenodd;clip-rule:evenodd;stroke-linejoin:round;stroke-miterlimit:2">
  <desc>Traced by Dogo314</desc>
  <path style="fill:none" d="M0 0h433v421H0z" transform="scale(.59122 .60808)"/>
  <path d="m240 120-60 103.923H60L0 120 60 16.077h120z" style="fill:#ffdf21" transform="matrix(.99999 0 0 1 8 8)"/>
  <path d="M1564.52 407h-34.645C1522.5 387.5 1518 364 1518 348c0-5.882.549-12.346 1.492-19h79.016c.943 6.654 1.492 13.118 1.492 19 0 5.56-.543 12.027-1.562 18.916zm18.24 12.362C1576.1 432.661 1567.926 442 1559 442c-9.874 0-18.826-11.426-25.828-27h50.649zM1520.796 321a233 233 0 0 1 2.061-10H1512v-16h15.081a213 213 0 0 1 2.919-9h58a213 213 0 0 1 2.919 9H1606v16h-10.857a233 233 0 0 1 2.061 10zM1610 392h19l-44 52 9-37h-19l44-52z" style="fill:#292c29" transform="matrix(.99999 0 0 1 -1430.99 -232.001)"/>
</svg>
