<svg viewBox="0 0 256 256" xmlns="http://www.w3.org/2000/svg" xml:space="preserve" style="fill-rule:evenodd;clip-rule:evenodd;stroke-linejoin:round;stroke-miterlimit:2">
  <desc>Traced by Dogo314</desc>
  <path style="fill:none" d="M0 0h433v421H0z" transform="scale(.59122 .60808)"/>
  <path d="m240 120-60 103.923H60L0 120 60 16.077h120z" style="fill:#ffdf21" transform="scale(.59122 .60808) matrix(1.6914 0 0 1.64453 13.531 13.156)"/>
  <path d="M395.188 317.741C385.649 309.787 373.379 305 360 305c-30.355 0-55 24.645-55 55s24.645 55 55 55 55-24.645 55-55h10c0 35.874-29.126 65-65 65s-65-29.126-65-65 29.126-65 65-65c16.139 0 30.912 5.895 42.282 15.647l12.165-12.165 7.071 7.071-47.234 47.234A15.9 15.9 0 0 1 376 360c0 8.831-7.169 16-16 16s-16-7.169-16-16 7.169-16 16-16c2.594 0 5.045.619 7.213 1.716l10.882-10.883A30.85 30.85 0 0 0 360 329c-17.109 0-31 13.891-31 31s13.891 31 31 31 31-13.891 31-31h10c0 22.629-18.371 41-41 41s-41-18.371-41-41 18.371-41 41-41a40.8 40.8 0 0 1 25.235 8.694z" style="fill:#292c29" transform="scale(.59122 .60808) matrix(1.6914 0 0 1.64453 -392.406 -381.531)"/>
</svg>
