<svg viewBox="0 0 256 256" xmlns="http://www.w3.org/2000/svg" xml:space="preserve" style="fill-rule:evenodd;clip-rule:evenodd;stroke-linejoin:round;stroke-miterlimit:2">
  <desc>Traced by Dogo314</desc>
  <path style="fill:none" d="M0 0h433v421H0z" transform="scale(.59122 .60808)"/>
  <path d="m240 120-60 103.923H60L0 120 60 16.077h120z" style="fill:#ffdf21" transform="scale(.59122 .60808) matrix(1.6914 0 0 1.64453 13.531 13.156)"/>
  <path d="M132.725 332.629c13.749 4.379 24.131 16.784 25.198 32.045 1.396 19.97-13.684 37.318-33.654 38.714-10.428.73-43.188 3.279-43.188 3.279l-18.76 1.46.148-18.816s.258-32.857.258-43.311c0-20.019 16.254-36.273 36.273-36.273 15.298 0 28.397 9.491 33.725 22.902m-8.217 8.811c-2.157-12.128-12.764-21.349-25.508-21.349-14.3 0-25.909 11.609-25.909 25.909 0 10.473-.259 43.392-.259 43.392l-.059 7.527 7.504-.584s32.821-2.554 43.269-3.285c14.265-.998 25.036-13.389 24.038-27.653-.889-12.713-10.827-22.651-23.076-23.957m-44.767 48.006S80 356.486 80 346s8.514-19 19-19 19 8.514 19 19q-.001 1.329-.178 2.61a19 19 0 0 1 2.591-.36c10.461-.731 19.548 7.168 20.279 17.629.732 10.46-7.167 19.547-17.628 20.279s-43.323 3.288-43.323 3.288" style="fill:#292c29" transform="scale(.59122 .60808) matrix(1.43233 -1.29866 1.33567 1.39264 -417.89 -162.52)"/>
</svg>
